<svg width="731" height="411" viewBox="0 0 731 411" fill="none" xmlns="http://www.w3.org/2000/svg">
<g filter="url(#filter0_d_212_53)">
<path d="M727 180.5L593 261V402.5L727 322V180.5Z" fill="#A1A8C5"/>
<path d="M454 327.5V180L593 261.5V402.5L454 327.5Z" fill="#C4C4E1"/>
<path d="M463.033 182.964L586.48 111.036L717.957 182.964L586.48 257.902L463.033 182.964Z" fill="#A1A8C5"/>
<path d="M591 106H594V253.613L591 255.343V106Z" fill="#8A98CE"/>
<rect x="586.594" y="107.845" width="7.13186" height="157.686" transform="rotate(-60 586.594 107.845)" fill="#C4C4E1"/>
<path d="M454 180L461 176L530.921 217.619L599 257.5L593 261.5L454 180Z" fill="#C4C4E1"/>
<path d="M727 180.5L727 187L596.5 261L596.5 255.5L727 180.5Z" fill="#A1A8C5"/>
<path d="M590.17 101L594.261 107.444L460.87 184L454 180L590.17 101Z" fill="#C4C4E1"/>
<path d="M721.5 177.5L727 180.5L593 261.5L587 258L721.5 177.5Z" fill="#C4C4E1"/>
<path d="M516 216.5L528 223.5L527.5 367L516 361V216.5Z" fill="#C3A5E1"/>
<path d="M655 224L666 217.37V358.641L655 365.306V224Z" fill="#9788C6"/>
<path d="M592.99 153.987L726.5 79.0001V121L592.99 199.629V153.987Z" fill="#A1A8C5"/>
<path d="M454 120.5L454.5 79.5L592.994 154V199.616L454 120.5Z" fill="#C4C4E1"/>
<path d="M454.5 79.5L590 0L726.5 79L593.022 154.014L454.5 79.5Z" fill="#C4C4E1"/>
<path d="M650.003 34.3994L659.336 39.9994L527.744 119.918L516.535 113.707L650.003 34.3994Z" fill="#C3A5E1"/>
<path d="M516.534 113.711L527.734 119.899V163.201L516.534 157.199V113.711Z" fill="#C3A5E1"/>
<path d="M655 118.694L666 112.577V157.167L655 163V118.694Z" fill="#9788C6"/>
<path d="M524.442 38.4687L534.113 32.7891L666 112.6L655 118.7L524.442 38.4687Z" fill="#C3A5E1"/>
<path d="M596.5 74.4H596.4L596.4 74.5C596.4 75.1451 595.973 75.8624 595.185 76.6183C594.4 77.3708 593.276 78.1453 591.92 78.905C589.209 80.4239 585.591 81.8745 581.971 82.9668C578.35 84.0593 574.735 84.7911 572.028 84.8766C570.673 84.9195 569.557 84.7999 568.783 84.4902C568.397 84.3358 568.102 84.1361 567.903 83.8909C567.706 83.6472 567.6 83.3533 567.6 83.0001L567.6 82.9001H567.5C567.099 82.9001 566.83 82.8473 566.669 82.7605C566.59 82.718 566.54 82.6692 566.511 82.6174C566.483 82.5661 566.47 82.5045 566.477 82.429C566.491 82.2729 566.587 82.0673 566.778 81.8144C566.966 81.5642 567.238 81.2789 567.583 80.9647C568.965 79.7067 571.489 78.0236 574.425 76.3368C577.359 74.651 580.699 72.9654 583.711 71.7016C585.216 71.0697 586.638 70.5438 587.886 70.1761C589.135 69.8078 590.202 69.6001 591 69.6001L591.1 69.6001V69.5001C591.1 69.2413 591.19 68.9434 591.369 68.6102C591.547 68.2777 591.811 67.9156 592.149 67.5299C592.827 66.7586 593.798 65.9018 594.967 65.0092C597.305 63.2245 600.425 61.3055 603.547 59.6509C606.669 57.9961 609.788 56.6086 612.123 55.8847C613.293 55.5221 614.256 55.329 614.923 55.3471C615.257 55.3562 615.503 55.418 615.663 55.526C615.817 55.6295 615.9 55.7808 615.9 56.0001V56.1001L616 56.1001C616.364 56.1001 616.618 56.1706 616.783 56.2891C616.944 56.4047 617.033 56.5744 617.052 56.8033C617.071 57.0359 617.018 57.3275 616.891 57.6731C616.766 58.0175 616.57 58.4091 616.313 58.8393C615.28 60.5622 613.272 62.8674 610.868 65.1779C608.465 67.4872 605.673 69.7957 603.077 71.5262C601.779 72.3914 600.533 73.1109 599.409 73.6138C598.284 74.1175 597.292 74.4 596.5 74.4Z" fill="#9788C6" stroke="black" stroke-width="0.2"/>
<path d="M596.9 69V69.1H597C598.231 69.1 600.403 69.6585 602.904 70.5055C605.4 71.3508 608.209 72.4782 610.705 73.6057C613.204 74.7339 615.384 75.8596 616.626 76.7011C616.936 76.9113 617.185 77.102 617.365 77.2691C617.549 77.4394 617.649 77.5743 617.679 77.6712C617.694 77.7165 617.69 77.7458 617.682 77.7661C617.673 77.787 617.651 77.813 617.601 77.839C617.497 77.8933 617.303 77.9291 616.993 77.9291H616.893V78.0291C616.893 78.5994 616.499 79.0588 615.748 79.412C614.998 79.7648 613.918 79.9975 612.61 80.1212C609.996 80.3685 606.506 80.1777 603.011 79.6734C599.516 79.1692 596.025 78.3525 593.41 77.3517C592.101 76.851 591.018 76.3063 590.263 75.735C589.505 75.1609 589.1 74.5767 589.1 74.0001V73.9001H589C588.402 73.9001 587.64 73.6199 586.767 73.1129C585.896 72.6075 584.927 71.8838 583.916 71.0126C581.894 69.2703 579.716 66.9456 577.847 64.6197C575.978 62.2927 574.424 59.9711 573.648 58.2355C573.258 57.3641 573.072 56.6574 573.126 56.1764C573.152 55.9395 573.236 55.766 573.373 55.6503C573.511 55.5339 573.718 55.4646 574.014 55.4646H574.114V55.3646C574.114 55.0724 574.197 54.86 574.343 54.7092C574.492 54.5567 574.715 54.4558 575.016 54.41C575.622 54.3179 576.502 54.4543 577.576 54.7802C579.72 55.4304 582.585 56.8176 585.456 58.52C588.325 60.2219 591.193 62.2348 593.342 64.1326C594.417 65.0816 595.309 65.9996 595.932 66.8335C596.558 67.6711 596.9 68.4088 596.9 69Z" fill="#9788C6" stroke="black" stroke-width="0.2"/>
<path d="M593.817 69.308L594.603 70.6899H597.146L595.089 71.5441L595.874 72.926L593.817 72.0719L591.76 72.926L592.546 71.5441L590.488 70.6899H593.031L593.817 69.308Z" fill="#C3A5E1"/>
</g>
<g filter="url(#filter1_d_212_53)">
<path d="M277 180.5L143 261V402.5L277 322V180.5Z" fill="#A1A8C5"/>
<path d="M4 327.5V180L143 261.5V402.5L4 327.5Z" fill="#C4C4E1"/>
<path d="M13.0327 182.964L136.48 111.036L267.957 182.964L136.48 257.902L13.0327 182.964Z" fill="#A1A8C5"/>
<path d="M141 106H144V253.613L141 255.343V106Z" fill="#8A98CE"/>
<rect x="136.594" y="107.845" width="7.13186" height="157.686" transform="rotate(-60 136.594 107.845)" fill="#C4C4E1"/>
<path d="M4.00003 180L11 176L80.9207 217.619L149 257.5L143 261.5L4.00003 180Z" fill="#C4C4E1"/>
<path d="M277 180.5L277 187L146.5 261L146.5 255.5L277 180.5Z" fill="#A1A8C5"/>
<path d="M140.17 101L144.261 107.444L10.8701 184L4.00016 180L140.17 101Z" fill="#C4C4E1"/>
<path d="M271.5 177.5L277 180.5L143 261.5L137 258L271.5 177.5Z" fill="#C4C4E1"/>
<path d="M66 216.5L78 223.5L77.5 367L66 361V216.5Z" fill="#C3A5E1"/>
<path d="M205 224L216 217.37V358.641L205 365.306V224Z" fill="#9788C6"/>
<path d="M142.99 223.987L276.5 149V191L142.99 269.629V223.987Z" fill="#A1A8C5"/>
<path d="M4 190.5L4.5 149.5L142.994 224V269.616L4 190.5Z" fill="#C4C4E1"/>
<path d="M4.5 149.5L140 70L276.5 149L143.022 224.014L4.5 149.5Z" fill="#C4C4E1"/>
<path d="M200.003 104.399L209.336 109.999L77.7436 189.918L66.5352 183.707L200.003 104.399Z" fill="#C3A5E1"/>
<path d="M66.5342 183.711L77.7343 189.899V233.201L66.5342 227.199V183.711Z" fill="#C3A5E1"/>
<path d="M205 188.694L216 182.577V227.167L205 233V188.694Z" fill="#9788C6"/>
<path d="M74.4416 108.469L84.1133 102.789L216 182.6L205 188.7L74.4416 108.469Z" fill="#C3A5E1"/>
<path d="M146.5 144.4H146.4L146.4 144.5C146.4 145.145 145.973 145.862 145.185 146.618C144.4 147.371 143.276 148.145 141.92 148.905C139.209 150.424 135.591 151.874 131.971 152.967C128.35 154.059 124.735 154.791 122.028 154.877C120.673 154.919 119.557 154.8 118.783 154.49C118.397 154.336 118.102 154.136 117.903 153.891C117.706 153.647 117.6 153.353 117.6 153L117.6 152.9H117.5C117.099 152.9 116.83 152.847 116.669 152.76C116.59 152.718 116.54 152.669 116.511 152.617C116.483 152.566 116.47 152.504 116.477 152.429C116.491 152.273 116.587 152.067 116.778 151.814C116.966 151.564 117.238 151.279 117.583 150.965C118.965 149.707 121.489 148.024 124.425 146.337C127.359 144.651 130.699 142.965 133.711 141.702C135.216 141.07 136.638 140.544 137.886 140.176C139.135 139.808 140.202 139.6 141 139.6L141.1 139.6V139.5C141.1 139.241 141.19 138.943 141.369 138.61C141.547 138.278 141.811 137.916 142.149 137.53C142.827 136.759 143.798 135.902 144.967 135.009C147.305 133.224 150.425 131.305 153.547 129.651C156.669 127.996 159.788 126.609 162.123 125.885C163.293 125.522 164.256 125.329 164.923 125.347C165.257 125.356 165.503 125.418 165.663 125.526C165.817 125.629 165.9 125.781 165.9 126V126.1L166 126.1C166.364 126.1 166.618 126.171 166.783 126.289C166.944 126.405 167.033 126.574 167.052 126.803C167.071 127.036 167.018 127.327 166.891 127.673C166.766 128.018 166.57 128.409 166.313 128.839C165.28 130.562 163.272 132.867 160.868 135.178C158.465 137.487 155.673 139.796 153.077 141.526C151.779 142.391 150.533 143.111 149.409 143.614C148.284 144.117 147.292 144.4 146.5 144.4Z" fill="#9788C6" stroke="black" stroke-width="0.2"/>
<path d="M146.9 139V139.1H147C148.231 139.1 150.403 139.659 152.904 140.506C155.4 141.351 158.209 142.478 160.705 143.606C163.204 144.734 165.384 145.86 166.626 146.701C166.936 146.911 167.185 147.102 167.365 147.269C167.549 147.439 167.649 147.574 167.679 147.671C167.694 147.716 167.69 147.746 167.682 147.766C167.673 147.787 167.651 147.813 167.601 147.839C167.497 147.893 167.303 147.929 166.993 147.929H166.893V148.029C166.893 148.599 166.499 149.059 165.748 149.412C164.998 149.765 163.918 149.998 162.61 150.121C159.996 150.368 156.506 150.178 153.011 149.673C149.516 149.169 146.025 148.353 143.41 147.352C142.101 146.851 141.018 146.306 140.263 145.735C139.505 145.161 139.1 144.577 139.1 144V143.9H139C138.402 143.9 137.64 143.62 136.767 143.113C135.896 142.608 134.927 141.884 133.916 141.013C131.894 139.27 129.716 136.946 127.847 134.62C125.978 132.293 124.424 129.971 123.648 128.236C123.258 127.364 123.072 126.657 123.126 126.176C123.152 125.939 123.236 125.766 123.373 125.65C123.511 125.534 123.718 125.465 124.014 125.465H124.114V125.365C124.114 125.072 124.197 124.86 124.343 124.709C124.492 124.557 124.715 124.456 125.016 124.41C125.622 124.318 126.502 124.454 127.576 124.78C129.72 125.43 132.585 126.818 135.456 128.52C138.325 130.222 141.193 132.235 143.342 134.133C144.417 135.082 145.309 136 145.932 136.834C146.558 137.671 146.9 138.409 146.9 139Z" fill="#9788C6" stroke="black" stroke-width="0.2"/>
<path d="M143.817 139.308L144.603 140.69H147.146L145.089 141.544L145.874 142.926L143.817 142.072L141.76 142.926L142.546 141.544L140.488 140.69H143.031L143.817 139.308Z" fill="#C3A5E1"/>
</g>
<path d="M424.536 239.536C426.488 237.583 426.488 234.417 424.536 232.464L392.716 200.645C390.763 198.692 387.597 198.692 385.645 200.645C383.692 202.597 383.692 205.763 385.645 207.716L413.929 236L385.645 264.284C383.692 266.237 383.692 269.403 385.645 271.355C387.597 273.308 390.763 273.308 392.716 271.355L424.536 239.536ZM307 241H421V231H307V241Z" fill="black"/>
<defs>
<filter id="filter0_d_212_53" x="450" y="0" width="281" height="410.5" filterUnits="userSpaceOnUse" color-interpolation-filters="sRGB">
<feFlood flood-opacity="0" result="BackgroundImageFix"/>
<feColorMatrix in="SourceAlpha" type="matrix" values="0 0 0 0 0 0 0 0 0 0 0 0 0 0 0 0 0 0 127 0" result="hardAlpha"/>
<feOffset dy="4"/>
<feGaussianBlur stdDeviation="2"/>
<feComposite in2="hardAlpha" operator="out"/>
<feColorMatrix type="matrix" values="0 0 0 0 0 0 0 0 0 0 0 0 0 0 0 0 0 0 0.25 0"/>
<feBlend mode="normal" in2="BackgroundImageFix" result="effect1_dropShadow_212_53"/>
<feBlend mode="normal" in="SourceGraphic" in2="effect1_dropShadow_212_53" result="shape"/>
</filter>
<filter id="filter1_d_212_53" x="0" y="70" width="281" height="340.5" filterUnits="userSpaceOnUse" color-interpolation-filters="sRGB">
<feFlood flood-opacity="0" result="BackgroundImageFix"/>
<feColorMatrix in="SourceAlpha" type="matrix" values="0 0 0 0 0 0 0 0 0 0 0 0 0 0 0 0 0 0 127 0" result="hardAlpha"/>
<feOffset dy="4"/>
<feGaussianBlur stdDeviation="2"/>
<feComposite in2="hardAlpha" operator="out"/>
<feColorMatrix type="matrix" values="0 0 0 0 0 0 0 0 0 0 0 0 0 0 0 0 0 0 0.25 0"/>
<feBlend mode="normal" in2="BackgroundImageFix" result="effect1_dropShadow_212_53"/>
<feBlend mode="normal" in="SourceGraphic" in2="effect1_dropShadow_212_53" result="shape"/>
</filter>
</defs>
</svg>
