<svg width="60" height="89" viewBox="0 0 60 89" fill="none" xmlns="http://www.w3.org/2000/svg">
<circle cx="30" cy="45" r="30" fill="#EBEBEB"/>
<path d="M50 40C50 53.8071 38.8071 65 25 65C11.1929 65 1.52283 55.0254 1.52283 41.2183C1.52283 27.4111 12.7157 16.2183 26.5228 16.2183C40.33 16.2183 50 26.1928 50 40Z" fill="white"/>
<path d="M17.15 57H36.6L41.25 52.35L39.7 50.8L35.5 55H24V44.5H36.35L41 39.85V31.65L36.35 27H17.15L12.5 31.65V52.35L17.15 57ZM24 29H29.5V42.5H24V29Z" fill="#A1A8C5"/>
<path d="M17.15 57L16.4429 57.7071L16.7358 58H17.15V57ZM36.6 57V58H37.0142L37.3071 57.7071L36.6 57ZM41.25 52.35L41.9571 53.0571L42.6642 52.35L41.9571 51.6429L41.25 52.35ZM39.7 50.8L40.4071 50.0929L39.7 49.3858L38.9929 50.0929L39.7 50.8ZM35.5 55V56H35.9142L36.2071 55.7071L35.5 55ZM24 55H23V56H24V55ZM24 44.5V43.5H23V44.5H24ZM36.35 44.5V45.5H36.7642L37.0571 45.2071L36.35 44.5ZM41 39.85L41.7071 40.5571L42 40.2642V39.85H41ZM41 31.65H42V31.2358L41.7071 30.9429L41 31.65ZM36.35 27L37.0571 26.2929L36.7642 26H36.35V27ZM17.15 27V26H16.7358L16.4429 26.2929L17.15 27ZM12.5 31.65L11.7929 30.9429L11.5 31.2358V31.65H12.5ZM12.5 52.35H11.5V52.7642L11.7929 53.0571L12.5 52.35ZM24 29V28H23V29H24ZM29.5 29H30.5V28H29.5V29ZM29.5 42.5V43.5H30.5V42.5H29.5ZM24 42.5H23V43.5H24V42.5ZM17.15 58H36.6V56H17.15V58ZM37.3071 57.7071L41.9571 53.0571L40.5429 51.6429L35.8929 56.2929L37.3071 57.7071ZM41.9571 51.6429L40.4071 50.0929L38.9929 51.5071L40.5429 53.0571L41.9571 51.6429ZM38.9929 50.0929L34.7929 54.2929L36.2071 55.7071L40.4071 51.5071L38.9929 50.0929ZM35.5 54H24V56H35.5V54ZM25 55V44.5H23V55H25ZM24 45.5H36.35V43.5H24V45.5ZM37.0571 45.2071L41.7071 40.5571L40.2929 39.1429L35.6429 43.7929L37.0571 45.2071ZM42 39.85V31.65H40V39.85H42ZM41.7071 30.9429L37.0571 26.2929L35.6429 27.7071L40.2929 32.3571L41.7071 30.9429ZM36.35 26H17.15V28H36.35V26ZM16.4429 26.2929L11.7929 30.9429L13.2071 32.3571L17.8571 27.7071L16.4429 26.2929ZM11.5 31.65V52.35H13.5V31.65H11.5ZM11.7929 53.0571L16.4429 57.7071L17.8571 56.2929L13.2071 51.6429L11.7929 53.0571ZM24 30H29.5V28H24V30ZM28.5 29V42.5H30.5V29H28.5ZM29.5 41.5H24V43.5H29.5V41.5ZM25 42.5V29H23V42.5H25Z" fill="black"/>
<circle cx="51.5" cy="54.5" r="1.5" fill="#C8C8C8"/>
<circle cx="55.5" cy="45.5" r="2.5" fill="#C8C8C8"/>
<circle cx="39" cy="68" r="4" fill="#C8C8C8"/>
</svg>
