<svg width="727" height="403" viewBox="0 0 727 403" fill="none" xmlns="http://www.w3.org/2000/svg">
<path d="M724 180.5L590 261V402.5L724 322V180.5Z" fill="#A1A8C5"/>
<path d="M451 327.5V180L590 261.5V402.5L451 327.5Z" fill="#C4C4E1"/>
<path d="M460.033 182.964L583.48 111.036L714.957 182.964L583.48 257.902L460.033 182.964Z" fill="#A1A8C5"/>
<path d="M588 106H591V253.613L588 255.343V106Z" fill="#8A98CE"/>
<rect x="583.594" y="107.845" width="7.13186" height="157.686" transform="rotate(-60 583.594 107.845)" fill="#C4C4E1"/>
<path d="M451 180L458 176L527.921 217.619L596 257.5L590 261.5L451 180Z" fill="#C4C4E1"/>
<path d="M724 180.5L724 187L593.5 261L593.5 255.5L724 180.5Z" fill="#A1A8C5"/>
<path d="M587.17 101L591.261 107.444L457.87 184L451 180L587.17 101Z" fill="#C4C4E1"/>
<path d="M718.5 177.5L724 180.5L590 261.5L584 258L718.5 177.5Z" fill="#C4C4E1"/>
<path d="M513 216.5L525 223.5L524.5 367L513 361V216.5Z" fill="#C3A5E1"/>
<path d="M652 224L663 217.37V358.641L652 365.306V224Z" fill="#9788C6"/>
<path d="M589.99 153.987L723.5 79.0001V121L589.99 199.629V153.987Z" fill="#A1A8C5"/>
<path d="M451 120.5L451.5 79.5L589.994 154V199.616L451 120.5Z" fill="#C4C4E1"/>
<path d="M451.5 79.5L587 0L723.5 79L590.022 154.014L451.5 79.5Z" fill="#C4C4E1"/>
<path d="M647.003 34.3994L656.336 39.9994L524.744 119.918L513.535 113.707L647.003 34.3994Z" fill="#C3A5E1"/>
<path d="M513.534 113.711L524.734 119.899V163.201L513.534 157.199V113.711Z" fill="#C3A5E1"/>
<path d="M652 118.694L663 112.577V157.167L652 163V118.694Z" fill="#9788C6"/>
<path d="M521.442 38.4687L531.113 32.7891L663 112.6L652 118.7L521.442 38.4687Z" fill="#C3A5E1"/>
<path d="M593.5 74.4H593.4L593.4 74.5C593.4 75.1451 592.973 75.8624 592.185 76.6183C591.4 77.3708 590.276 78.1453 588.92 78.905C586.209 80.4239 582.591 81.8745 578.971 82.9668C575.35 84.0593 571.735 84.7911 569.028 84.8766C567.673 84.9195 566.557 84.7999 565.783 84.4902C565.397 84.3358 565.102 84.1361 564.903 83.8909C564.706 83.6472 564.6 83.3533 564.6 83.0001L564.6 82.9001H564.5C564.099 82.9001 563.83 82.8473 563.669 82.7605C563.59 82.718 563.54 82.6692 563.511 82.6174C563.483 82.5661 563.47 82.5045 563.477 82.429C563.491 82.2729 563.587 82.0673 563.778 81.8144C563.966 81.5642 564.238 81.2789 564.583 80.9647C565.965 79.7067 568.489 78.0236 571.425 76.3368C574.359 74.651 577.699 72.9654 580.711 71.7016C582.216 71.0697 583.638 70.5438 584.886 70.1761C586.135 69.8078 587.202 69.6001 588 69.6001L588.1 69.6001V69.5001C588.1 69.2413 588.19 68.9434 588.369 68.6102C588.547 68.2777 588.811 67.9156 589.149 67.5299C589.827 66.7586 590.798 65.9018 591.967 65.0092C594.305 63.2245 597.425 61.3055 600.547 59.6509C603.669 57.9961 606.788 56.6086 609.123 55.8847C610.293 55.5221 611.256 55.329 611.923 55.3471C612.257 55.3562 612.503 55.418 612.663 55.526C612.817 55.6295 612.9 55.7808 612.9 56.0001V56.1001L613 56.1001C613.364 56.1001 613.618 56.1706 613.783 56.2891C613.944 56.4047 614.033 56.5744 614.052 56.8033C614.071 57.0359 614.018 57.3275 613.891 57.6731C613.766 58.0175 613.57 58.4091 613.313 58.8393C612.28 60.5622 610.272 62.8674 607.868 65.1779C605.465 67.4872 602.673 69.7957 600.077 71.5262C598.779 72.3914 597.533 73.1109 596.409 73.6138C595.284 74.1175 594.292 74.4 593.5 74.4Z" fill="#9788C6" stroke="black" stroke-width="0.2"/>
<path d="M593.9 69V69.1H594C595.231 69.1 597.403 69.6585 599.904 70.5055C602.4 71.3508 605.209 72.4782 607.705 73.6057C610.204 74.7339 612.384 75.8596 613.626 76.7011C613.936 76.9113 614.185 77.102 614.365 77.2691C614.549 77.4394 614.649 77.5743 614.679 77.6712C614.694 77.7165 614.69 77.7458 614.682 77.7661C614.673 77.787 614.651 77.813 614.601 77.839C614.497 77.8933 614.303 77.9291 613.993 77.9291H613.893V78.0291C613.893 78.5994 613.499 79.0588 612.748 79.412C611.998 79.7648 610.918 79.9975 609.61 80.1212C606.996 80.3685 603.506 80.1777 600.011 79.6734C596.516 79.1692 593.025 78.3525 590.41 77.3517C589.101 76.851 588.018 76.3063 587.263 75.735C586.505 75.1609 586.1 74.5767 586.1 74.0001V73.9001H586C585.402 73.9001 584.64 73.6199 583.767 73.1129C582.896 72.6075 581.927 71.8838 580.916 71.0126C578.894 69.2703 576.716 66.9456 574.847 64.6197C572.978 62.2927 571.424 59.9711 570.648 58.2355C570.258 57.3641 570.072 56.6574 570.126 56.1764C570.152 55.9395 570.236 55.766 570.373 55.6503C570.511 55.5339 570.718 55.4646 571.014 55.4646H571.114V55.3646C571.114 55.0724 571.197 54.86 571.343 54.7092C571.492 54.5567 571.715 54.4558 572.016 54.41C572.622 54.3179 573.502 54.4543 574.576 54.7802C576.72 55.4304 579.585 56.8176 582.456 58.52C585.325 60.2219 588.193 62.2348 590.342 64.1326C591.417 65.0816 592.309 65.9996 592.932 66.8335C593.558 67.6711 593.9 68.4088 593.9 69Z" fill="#9788C6" stroke="black" stroke-width="0.2"/>
<path d="M590.817 69.308L591.603 70.6899H594.146L592.089 71.5441L592.874 72.926L590.817 72.0719L588.76 72.926L589.546 71.5441L587.488 70.6899H590.031L590.817 69.308Z" fill="#C3A5E1"/>
<path d="M274 180.5L140 261V402.5L274 322V180.5Z" fill="#A1A8C5"/>
<path d="M1 327.5V180L140 261.5V402.5L1 327.5Z" fill="#C4C4E1"/>
<path d="M10.0327 182.964L133.48 111.036L264.957 182.964L133.48 257.902L10.0327 182.964Z" fill="#A1A8C5"/>
<path d="M138 106H141V253.613L138 255.343V106Z" fill="#8A98CE"/>
<rect x="133.594" y="107.845" width="7.13186" height="157.686" transform="rotate(-60 133.594 107.845)" fill="#C4C4E1"/>
<path d="M1.00003 180L8 176L77.9207 217.619L146 257.5L140 261.5L1.00003 180Z" fill="#C4C4E1"/>
<path d="M274 180.5L274 187L143.5 261L143.5 255.5L274 180.5Z" fill="#A1A8C5"/>
<path d="M137.17 101L141.261 107.444L7.87008 184L1.00016 180L137.17 101Z" fill="#C4C4E1"/>
<path d="M268.5 177.5L274 180.5L140 261.5L134 258L268.5 177.5Z" fill="#C4C4E1"/>
<path d="M63 216.5L75 223.5L74.5 367L63 361V216.5Z" fill="#C3A5E1"/>
<path d="M202 224L213 217.37V358.641L202 365.306V224Z" fill="#9788C6"/>
<path d="M139.99 223.987L273.5 149V191L139.99 269.629V223.987Z" fill="#A1A8C5"/>
<path d="M1 190.5L1.5 149.5L139.994 224V269.616L1 190.5Z" fill="#C4C4E1"/>
<path d="M1.5 149.5L137 70L273.5 149L140.022 224.014L1.5 149.5Z" fill="#C4C4E1"/>
<path d="M197.003 104.399L206.336 109.999L74.7436 189.918L63.5352 183.707L197.003 104.399Z" fill="#C3A5E1"/>
<path d="M63.5342 183.711L74.7343 189.899V233.201L63.5342 227.199V183.711Z" fill="#C3A5E1"/>
<path d="M202 188.694L213 182.577V227.167L202 233V188.694Z" fill="#9788C6"/>
<path d="M71.4416 108.469L81.1133 102.789L213 182.6L202 188.7L71.4416 108.469Z" fill="#C3A5E1"/>
<path d="M143.5 144.4H143.4L143.4 144.5C143.4 145.145 142.973 145.862 142.185 146.618C141.4 147.371 140.276 148.145 138.92 148.905C136.209 150.424 132.591 151.874 128.971 152.967C125.35 154.059 121.735 154.791 119.028 154.877C117.673 154.919 116.557 154.8 115.783 154.49C115.397 154.336 115.102 154.136 114.903 153.891C114.706 153.647 114.6 153.353 114.6 153L114.6 152.9H114.5C114.099 152.9 113.83 152.847 113.669 152.76C113.59 152.718 113.54 152.669 113.511 152.617C113.483 152.566 113.47 152.504 113.477 152.429C113.491 152.273 113.587 152.067 113.778 151.814C113.966 151.564 114.238 151.279 114.583 150.965C115.965 149.707 118.489 148.024 121.425 146.337C124.359 144.651 127.699 142.965 130.711 141.702C132.216 141.07 133.638 140.544 134.886 140.176C136.135 139.808 137.202 139.6 138 139.6L138.1 139.6V139.5C138.1 139.241 138.19 138.943 138.369 138.61C138.547 138.278 138.811 137.916 139.149 137.53C139.827 136.759 140.798 135.902 141.967 135.009C144.305 133.224 147.425 131.305 150.547 129.651C153.669 127.996 156.788 126.609 159.123 125.885C160.293 125.522 161.256 125.329 161.923 125.347C162.257 125.356 162.503 125.418 162.663 125.526C162.817 125.629 162.9 125.781 162.9 126V126.1L163 126.1C163.364 126.1 163.618 126.171 163.783 126.289C163.944 126.405 164.033 126.574 164.052 126.803C164.071 127.036 164.018 127.327 163.891 127.673C163.766 128.018 163.57 128.409 163.313 128.839C162.28 130.562 160.272 132.867 157.868 135.178C155.465 137.487 152.673 139.796 150.077 141.526C148.779 142.391 147.533 143.111 146.409 143.614C145.284 144.117 144.292 144.4 143.5 144.4Z" fill="#9788C6" stroke="black" stroke-width="0.2"/>
<path d="M143.9 139V139.1H144C145.231 139.1 147.403 139.659 149.904 140.506C152.4 141.351 155.209 142.478 157.705 143.606C160.204 144.734 162.384 145.86 163.626 146.701C163.936 146.911 164.185 147.102 164.365 147.269C164.549 147.439 164.649 147.574 164.679 147.671C164.694 147.716 164.69 147.746 164.682 147.766C164.673 147.787 164.651 147.813 164.601 147.839C164.497 147.893 164.303 147.929 163.993 147.929H163.893V148.029C163.893 148.599 163.499 149.059 162.748 149.412C161.998 149.765 160.918 149.998 159.61 150.121C156.996 150.368 153.506 150.178 150.011 149.673C146.516 149.169 143.025 148.353 140.41 147.352C139.101 146.851 138.018 146.306 137.263 145.735C136.505 145.161 136.1 144.577 136.1 144V143.9H136C135.402 143.9 134.64 143.62 133.767 143.113C132.896 142.608 131.927 141.884 130.916 141.013C128.894 139.27 126.716 136.946 124.847 134.62C122.978 132.293 121.424 129.971 120.648 128.236C120.258 127.364 120.072 126.657 120.126 126.176C120.152 125.939 120.236 125.766 120.373 125.65C120.511 125.534 120.718 125.465 121.014 125.465H121.114V125.365C121.114 125.072 121.197 124.86 121.343 124.709C121.492 124.557 121.715 124.456 122.016 124.41C122.622 124.318 123.502 124.454 124.576 124.78C126.72 125.43 129.585 126.818 132.456 128.52C135.325 130.222 138.193 132.235 140.342 134.133C141.417 135.082 142.309 136 142.932 136.834C143.558 137.671 143.9 138.409 143.9 139Z" fill="#9788C6" stroke="black" stroke-width="0.2"/>
<path d="M140.817 139.308L141.603 140.69H144.146L142.089 141.544L142.874 142.926L140.817 142.072L138.76 142.926L139.546 141.544L137.488 140.69H140.031L140.817 139.308Z" fill="#C3A5E1"/>
<path d="M421.536 239.536C423.488 237.583 423.488 234.417 421.536 232.464L389.716 200.645C387.763 198.692 384.597 198.692 382.645 200.645C380.692 202.597 380.692 205.763 382.645 207.716L410.929 236L382.645 264.284C380.692 266.237 380.692 269.403 382.645 271.355C384.597 273.308 387.763 273.308 389.716 271.355L421.536 239.536ZM304 241H418V231H304V241Z" fill="black"/>
</svg>
