<svg width="281" height="411" viewBox="0 0 281 411" fill="none" xmlns="http://www.w3.org/2000/svg">
<g filter="url(#filter0_d_205_241)">
<path d="M277 180.5L143 261V402.5L277 322V180.5Z" fill="#A1A8C5"/>
<path d="M4 327.5V180L143 261.5V402.5L4 327.5Z" fill="#C4C4E1"/>
<path d="M13.0327 182.964L136.48 111.036L267.957 182.964L136.48 257.902L13.0327 182.964Z" fill="#A1A8C5"/>
<path d="M141 106H144V253.613L141 255.343V106Z" fill="#8A98CE"/>
<rect x="136.594" y="107.845" width="7.13186" height="157.686" transform="rotate(-60 136.594 107.845)" fill="#C4C4E1"/>
<path d="M4.00003 180L11 176L80.9207 217.619L149 257.5L143 261.5L4.00003 180Z" fill="#C4C4E1"/>
<path d="M277 180.5L277 187L146.5 261L146.5 255.5L277 180.5Z" fill="#A1A8C5"/>
<path d="M140.17 101L144.261 107.444L10.8701 184L4.00016 180L140.17 101Z" fill="#C4C4E1"/>
<path d="M271.5 177.5L277 180.5L143 261.5L137 258L271.5 177.5Z" fill="#C4C4E1"/>
<path d="M66 216.5L78 223.5L77.5 367L66 361V216.5Z" fill="#C3A5E1"/>
<path d="M205 224L216 217.37V358.641L205 365.306V224Z" fill="#9788C6"/>
<path d="M142.99 153.987L276.5 79.0001V121L142.99 199.629V153.987Z" fill="#A1A8C5"/>
<path d="M4 120.5L4.5 79.5L142.994 154V199.616L4 120.5Z" fill="#C4C4E1"/>
<path d="M4.5 79.5L140 0L276.5 79L143.022 154.014L4.5 79.5Z" fill="#C4C4E1"/>
<path d="M200.003 34.3994L209.336 39.9994L77.7436 119.918L66.5352 113.707L200.003 34.3994Z" fill="#C3A5E1"/>
<path d="M66.5342 113.711L77.7343 119.899V163.201L66.5342 157.199V113.711Z" fill="#C3A5E1"/>
<path d="M205 118.694L216 112.577V157.167L205 163V118.694Z" fill="#9788C6"/>
<path d="M74.4416 38.4687L84.1133 32.7891L216 112.6L205 118.7L74.4416 38.4687Z" fill="#C3A5E1"/>
<path d="M146.5 74.4H146.4L146.4 74.5C146.4 75.1451 145.973 75.8624 145.185 76.6183C144.4 77.3708 143.276 78.1453 141.92 78.905C139.209 80.4239 135.591 81.8745 131.971 82.9668C128.35 84.0593 124.735 84.7911 122.028 84.8766C120.673 84.9195 119.557 84.7999 118.783 84.4902C118.397 84.3358 118.102 84.1361 117.903 83.8909C117.706 83.6472 117.6 83.3533 117.6 83.0001L117.6 82.9001H117.5C117.099 82.9001 116.83 82.8473 116.669 82.7605C116.59 82.718 116.54 82.6692 116.511 82.6174C116.483 82.5661 116.47 82.5045 116.477 82.429C116.491 82.2729 116.587 82.0673 116.778 81.8144C116.966 81.5642 117.238 81.2789 117.583 80.9647C118.965 79.7067 121.489 78.0236 124.425 76.3368C127.359 74.651 130.699 72.9654 133.711 71.7016C135.216 71.0697 136.638 70.5438 137.886 70.1761C139.135 69.8078 140.202 69.6001 141 69.6001L141.1 69.6001V69.5001C141.1 69.2413 141.19 68.9434 141.369 68.6102C141.547 68.2777 141.811 67.9156 142.149 67.5299C142.827 66.7586 143.798 65.9018 144.967 65.0092C147.305 63.2245 150.425 61.3055 153.547 59.6509C156.669 57.9961 159.788 56.6086 162.123 55.8847C163.293 55.5221 164.256 55.329 164.923 55.3471C165.257 55.3562 165.503 55.418 165.663 55.526C165.817 55.6295 165.9 55.7808 165.9 56.0001V56.1001L166 56.1001C166.364 56.1001 166.618 56.1706 166.783 56.2891C166.944 56.4047 167.033 56.5744 167.052 56.8033C167.071 57.0359 167.018 57.3275 166.891 57.6731C166.766 58.0175 166.57 58.4091 166.313 58.8393C165.28 60.5622 163.272 62.8674 160.868 65.1779C158.465 67.4872 155.673 69.7957 153.077 71.5262C151.779 72.3914 150.533 73.1109 149.409 73.6138C148.284 74.1175 147.292 74.4 146.5 74.4Z" fill="#9788C6" stroke="black" stroke-width="0.2"/>
<path d="M146.9 69V69.1H147C148.231 69.1 150.403 69.6585 152.904 70.5055C155.4 71.3508 158.209 72.4782 160.705 73.6057C163.204 74.7339 165.384 75.8596 166.626 76.7011C166.936 76.9113 167.185 77.102 167.365 77.2691C167.549 77.4394 167.649 77.5743 167.679 77.6712C167.694 77.7165 167.69 77.7458 167.682 77.7661C167.673 77.787 167.651 77.813 167.601 77.839C167.497 77.8933 167.303 77.9291 166.993 77.9291H166.893V78.0291C166.893 78.5994 166.499 79.0588 165.748 79.412C164.998 79.7648 163.918 79.9975 162.61 80.1212C159.996 80.3685 156.506 80.1777 153.011 79.6734C149.516 79.1692 146.025 78.3525 143.41 77.3517C142.101 76.851 141.018 76.3063 140.263 75.735C139.505 75.1609 139.1 74.5767 139.1 74.0001V73.9001H139C138.402 73.9001 137.64 73.6199 136.767 73.1129C135.896 72.6075 134.927 71.8838 133.916 71.0126C131.894 69.2703 129.716 66.9456 127.847 64.6197C125.978 62.2927 124.424 59.9711 123.648 58.2355C123.258 57.3641 123.072 56.6574 123.126 56.1764C123.152 55.9395 123.236 55.766 123.373 55.6503C123.511 55.5339 123.718 55.4646 124.014 55.4646H124.114V55.3646C124.114 55.0724 124.197 54.86 124.343 54.7092C124.492 54.5567 124.715 54.4558 125.016 54.41C125.622 54.3179 126.502 54.4543 127.576 54.7802C129.72 55.4304 132.585 56.8176 135.456 58.52C138.325 60.2219 141.193 62.2348 143.342 64.1326C144.417 65.0816 145.309 65.9996 145.932 66.8335C146.558 67.6711 146.9 68.4088 146.9 69Z" fill="#9788C6" stroke="black" stroke-width="0.2"/>
<path d="M143.817 69.308L144.603 70.6899H147.146L145.089 71.5441L145.874 72.926L143.817 72.0719L141.76 72.926L142.546 71.5441L140.488 70.6899H143.031L143.817 69.308Z" fill="#C3A5E1"/>
</g>
<defs>
<filter id="filter0_d_205_241" x="0" y="0" width="281" height="410.5" filterUnits="userSpaceOnUse" color-interpolation-filters="sRGB">
<feFlood flood-opacity="0" result="BackgroundImageFix"/>
<feColorMatrix in="SourceAlpha" type="matrix" values="0 0 0 0 0 0 0 0 0 0 0 0 0 0 0 0 0 0 127 0" result="hardAlpha"/>
<feOffset dy="4"/>
<feGaussianBlur stdDeviation="2"/>
<feComposite in2="hardAlpha" operator="out"/>
<feColorMatrix type="matrix" values="0 0 0 0 0 0 0 0 0 0 0 0 0 0 0 0 0 0 0.25 0"/>
<feBlend mode="normal" in2="BackgroundImageFix" result="effect1_dropShadow_205_241"/>
<feBlend mode="normal" in="SourceGraphic" in2="effect1_dropShadow_205_241" result="shape"/>
</filter>
</defs>
</svg>
