<svg width="647" height="354" viewBox="0 0 647 354" fill="none" xmlns="http://www.w3.org/2000/svg">
<rect x="16.5" y="6.5" width="596" height="310" fill="#E8E8E8" stroke="black"/>
<line y1="-0.5" x2="115.29" y2="-0.5" transform="matrix(-0.218002 0.967482 -0.98701 -0.205597 392.384 161.119)" stroke="#205492"/>
<line y1="-0.5" x2="83.0935" y2="-0.5" transform="matrix(1.00466 0.100813 -0.111097 0.983951 367.251 272.66)" stroke="#205492"/>
<line y1="-0.5" x2="77.4994" y2="-0.5" transform="matrix(0.170455 0.973622 -0.99624 0.174676 437.521 205.582)" stroke="#205492"/>
<line y1="-0.5" x2="166.576" y2="-0.5" transform="matrix(0.885354 -0.483957 0.487455 0.862738 367.251 272.66)" stroke="#205492"/>
<line y1="-0.5" x2="96.7427" y2="-0.5" transform="matrix(0.726364 -0.693367 0.702806 0.705476 367.251 272.66)" stroke="#205492"/>
<line y1="-0.5" x2="63.6121" y2="-0.5" transform="matrix(0.709569 0.698962 -0.719763 0.69993 392.384 161.119)" stroke="#205492"/>
<line y1="-0.5" x2="125.256" y2="-0.5" transform="matrix(0.976762 0.246896 -0.260108 0.957772 392.384 161.119)" stroke="#205492"/>
<line y1="-0.5" x2="150.102" y2="-0.5" transform="matrix(0.177599 -0.975064 0.99507 0.165983 451.154 280.596)" stroke="#205492"/>
<line y1="-0.5" x2="88.5808" y2="-0.5" transform="matrix(0.964407 -0.303477 0.302345 0.941491 392.384 161.119)" stroke="#205492"/>
<line y1="-0.5" x2="181.626" y2="-0.5" transform="matrix(0.879052 -0.494937 0.49873 0.856485 437.521 205.582)" stroke="#205492"/>
<line y1="-0.5" x2="147.059" y2="-0.5" transform="matrix(0.00904829 -0.989123 1.01072 0.000880941 514.729 192.044)" stroke="#205492"/>
<line y1="-0.5" x2="96.0872" y2="-0.5" transform="matrix(0.398053 -0.912211 0.929121 0.382313 477.812 134.237)" stroke="#205492"/>
<line y1="-0.5" x2="106.819" y2="-0.5" transform="matrix(0.759412 0.646917 -0.66699 0.748274 516.06 46.585)" stroke="#205492"/>
<line y1="-0.5" x2="119.435" y2="-0.5" transform="matrix(0.999434 -0.155302 0.150632 0.976894 477.812 134.237)" stroke="#205492"/>
<line y1="-0.5" x2="111.873" y2="-0.5" transform="matrix(0.737002 -0.682526 0.691638 0.715975 514.729 192.044)" stroke="#205492"/>
<ellipse rx="5.4205" ry="5.41913" transform="matrix(0.583844 -0.811866 0.825083 0.565012 367.15 272.799)" fill="#4F81BD"/>
<ellipse rx="5.80768" ry="5.41913" transform="matrix(0.583844 -0.811866 0.825083 0.565012 597.397 115.68)" fill="#4F81BD"/>
<ellipse rx="5.4205" ry="5.80621" transform="matrix(0.583844 -0.811866 0.825083 0.565012 516.125 46.4207)" fill="#4F81BD"/>
<ellipse rx="5.4205" ry="5.41913" transform="matrix(0.583844 -0.811866 0.825083 0.565012 514.901 191.953)" fill="#4F81BD"/>
<ellipse rx="5.80768" ry="5.80621" transform="matrix(0.583844 -0.811866 0.825083 0.565012 477.801 134.177)" fill="#4F81BD"/>
<ellipse rx="5.80768" ry="5.41913" transform="matrix(0.583844 -0.811866 0.825083 0.565012 392.267 160.987)" fill="#4F81BD"/>
<ellipse rx="5.4205" ry="5.41913" transform="matrix(0.583844 -0.811866 0.825083 0.565012 437.45 205.532)" fill="#4F81BD"/>
<ellipse rx="5.4205" ry="5.41913" transform="matrix(0.583844 -0.811866 0.825083 0.565012 450.702 281.224)" fill="#4F81BD"/>
<ellipse cx="27.7322" cy="180.815" rx="4.36897" ry="3.79462" transform="rotate(-44.2904 27.7322 180.815)" fill="#4F81BD"/>
<ellipse cx="224.182" cy="82.3203" rx="4.68104" ry="3.79462" transform="rotate(-44.2904 224.182 82.3203)" fill="#4F81BD"/>
<ellipse cx="178.611" cy="22.6465" rx="4.36897" ry="4.06566" transform="rotate(-44.2904 178.611 22.6465)" fill="#4F81BD"/>
<ellipse cx="149.987" cy="132.738" rx="4.36897" ry="3.79462" transform="rotate(-44.2904 149.987 132.738)" fill="#4F81BD"/>
<ellipse cx="134.171" cy="85.6891" rx="4.68104" ry="4.06566" transform="rotate(-44.2904 134.171 85.6891)" fill="#4F81BD"/>
<ellipse cx="67.2073" cy="98.3817" rx="4.68104" ry="3.79462" transform="rotate(-44.2904 67.2073 98.3817)" fill="#4F81BD"/>
<ellipse cx="91.3905" cy="136.132" rx="4.36897" ry="3.79462" transform="rotate(-44.2904 91.3905 136.132)" fill="#4F81BD"/>
<ellipse cx="86.5466" cy="194.626" rx="4.36897" ry="3.79462" transform="rotate(-44.2904 86.5466 194.626)" fill="#4F81BD"/>
<path d="M230 47C272.333 37.8333 371.2 41.4 428 129" stroke="black" stroke-width="4"/>
<path d="M428 129L413 125" stroke="black" stroke-width="4"/>
<path d="M427.374 129.515L427.897 114" stroke="black" stroke-width="4"/>
</svg>
